<svg width="100" height="100" xmlns="http://www.w3.org/2000/svg" xmlns:svg="http://www.w3.org/2000/svg">
  <title>bonsai</title>
  <g>
    <title>Layer 1</title>
    <path fill="#fc5372" id="svg_1" d="m72.735,90.61l-45.076,0c-4.437,0 -8.046,-3.087 -8.046,-6.881l0,-4.439l61.169,0l0,4.439c-0.001,3.794 -3.611,6.881 -8.047,6.881zm-50.536,-8.733l0,1.853c0,2.368 2.449,4.294 5.459,4.294l45.077,0c3.009,0 5.458,-1.926 5.458,-4.294l0,-1.853l-55.994,0zm58.062,-3.444l-60.128,0c-0.737,0 -1.335,-0.579 -1.335,-1.293c0,-0.715 0.598,-1.294 1.335,-1.294l60.128,0c0.737,0 1.335,0.579 1.335,1.294c0,0.714 -0.598,1.293 -1.335,1.293zm-102.287,19.011l-6.894,0a1.293,1.293 0 0 1 0,-2.587l6.894,0a1.293,1.293 0 0 1 0,2.587zm137.502,-19.011l-6.894,0a1.294,1.294 0 1 1 0,-2.587l6.894,0a1.293,1.293 0 0 1 0,2.587z"/>
    <path id="svg_2" d="m52.54,33.404l0,-5.438c-0.983,0.282 -2.009,0.429 -3.059,0.429c-3.681,0 -7.03,-1.788 -9.073,-4.709a6.719,6.719 0 0 1 -3.761,-0.448a11.876,11.876 0 0 1 2.023,2.666c0.123,-0.004 0.245,-0.007 0.368,-0.007c5.065,0 9.227,3.933 9.598,8.905l2.507,0a1.4,1.4 0 0 0 1.397,-1.398zm26.941,4.961a3.855,3.855 0 0 0 -0.918,-7.599a7.502,7.502 0 0 0 -10.743,-3.678a7.505,7.505 0 0 0 7.566,12.963a7.462,7.462 0 0 0 2.321,-2.117a3.878,3.878 0 0 0 1.774,0.431z" fill="none"/>
    <path fill="#fc5372" id="svg_3" d="m78.557,40.885a6.429,6.429 0 0 0 4.163,-0.81a6.451,6.451 0 0 0 2.316,-8.811a6.468,6.468 0 0 0 -4.954,-3.164a10.132,10.132 0 0 0 -8.486,-4.623c-1.78,0 -3.537,0.477 -5.08,1.377c-4.807,2.805 -6.434,8.996 -3.629,13.802a10.105,10.105 0 0 0 4.353,4.004a9.26,9.26 0 0 0 -3.793,1.176a5.995,5.995 0 0 0 -7.242,7.884l-9.415,0a5.508,5.508 0 0 1 -5.503,-5.503c0,-0.477 0.067,-0.938 0.182,-1.379a9.665,9.665 0 0 0 5.671,-4.124l4.004,0c4.032,0 7.311,-3.28 7.311,-7.311l0,-5.011l0.036,0.001c4.313,0 7.822,-3.51 7.822,-7.823c0,-3.925 -2.906,-7.185 -6.681,-7.739c-1.736,-3.978 -5.662,-6.614 -10.149,-6.614a11.142,11.142 0 0 0 -8.699,4.219a6.76,6.76 0 0 0 -8.243,6.588c0,1.617 0.572,3.103 1.524,4.266a11.912,11.912 0 0 0 -5.826,-1.521c-3.001,0 -5.87,1.119 -8.078,3.15a11.926,11.926 0 0 0 -3.01,4.362a7.06,7.06 0 0 0 -1.164,-0.096c-3.916,0 -7.101,3.186 -7.101,7.101s3.186,7.101 7.101,7.101c1.4,0 2.748,-0.422 3.885,-1.167a11.941,11.941 0 0 0 12.842,2.555a9.654,9.654 0 0 0 2.794,1.695a11.463,11.463 0 0 0 -0.134,1.748c0,6.296 5.122,11.417 11.417,11.417l11.236,0a0.844,0.844 0 0 1 0.647,1.382l-12.569,12.566a2.929,2.929 0 0 0 -0.396,0.494a5.164,5.164 0 0 0 -6.19,5.062l21.543,0a7.266,7.266 0 0 0 -5.187,-6.961l7.036,-7.038l0.084,-0.087a6.759,6.759 0 0 0 1.501,-2.64a9.258,9.258 0 0 0 8.264,-0.62a6.58,6.58 0 0 0 3.934,1.313a6.588,6.588 0 0 0 6.581,-6.581a6.587,6.587 0 0 0 -6.881,-6.573a9.232,9.232 0 0 0 -4.164,-4.312a10.11,10.11 0 0 0 6.327,-2.755zm-26.017,-7.481c0,0.77 -0.626,1.397 -1.397,1.397l-2.507,0c-0.371,-4.972 -4.533,-8.905 -9.598,-8.905c-0.123,0 -0.245,0.002 -0.368,0.007a11.898,11.898 0 0 0 -2.023,-2.666a6.719,6.719 0 0 0 3.761,0.448a11.035,11.035 0 0 0 9.073,4.709c1.05,0 2.075,-0.146 3.059,-0.429l0,5.439zm-13.248,-20.545c0.937,0 1.798,0.313 2.494,0.834a8.5,8.5 0 0 1 15.978,1.698c0.238,-0.033 0.479,-0.056 0.726,-0.056a5.234,5.234 0 0 1 5.234,5.235a5.235,5.235 0 0 1 -5.234,5.236l-0.036,-0.002a5.212,5.212 0 0 1 -3.84,-1.723a8.453,8.453 0 0 1 -2.073,1.149a8.46,8.46 0 0 1 -3.059,0.575a8.504,8.504 0 0 1 -7.882,-5.315a4.166,4.166 0 1 1 -2.308,-7.631zm-3.094,29.104a7.062,7.062 0 0 1 -2.913,-2.386a9.349,9.349 0 0 1 -13.231,-3.345a4.51,4.51 0 0 1 -4.069,2.569a4.514,4.514 0 0 1 0,-9.028a4.49,4.49 0 0 1 2.941,1.095c0.425,-4.77 4.43,-8.51 9.311,-8.51c4.131,0 7.634,2.681 8.871,6.396a7.038,7.038 0 0 1 8.97,6.769a7.04,7.04 0 0 1 -9.88,6.44zm38.43,9.151a3.986,3.986 0 0 1 2.066,-0.58a3.993,3.993 0 1 1 0,7.985a3.989,3.989 0 0 1 -3.625,-2.327a6.635,6.635 0 0 1 -8.345,1.45a6.663,6.663 0 0 1 -3.26,-4.661a3.395,3.395 0 0 1 -2.214,-1.144a3.4,3.4 0 0 1 4.472,-5.052a6.626,6.626 0 0 1 4.296,-1.577a6.657,6.657 0 0 1 6.61,5.906zm0.757,-11.063a7.502,7.502 0 0 1 -10.263,-2.699a7.505,7.505 0 0 1 6.474,-11.288a7.498,7.498 0 0 1 6.966,4.702a3.852,3.852 0 0 1 4.239,1.803a3.855,3.855 0 0 1 -3.321,5.796a3.87,3.87 0 0 1 -1.775,-0.431a7.458,7.458 0 0 1 -2.32,2.117z"/>
  </g>
</svg>